<svg width="30" height="30" viewBox="0 0 30 30" fill="none" xmlns="http://www.w3.org/2000/svg">
<path d="M15 4.89142C15.3587 4.89142 15.6522 4.59794 15.6522 4.23924V3.91316C15.6522 3.55446 15.3587 3.26099 15 3.26099C14.6413 3.26099 14.3478 3.55446 14.3478 3.91316V4.23924C14.3478 4.59794 14.6413 4.89142 15 4.89142Z" fill="#407BFF"/>
<path d="M15 25.1086C14.6413 25.1086 14.3478 25.4021 14.3478 25.7608V26.0869C14.3478 26.4456 14.6413 26.7391 15 26.7391C15.3587 26.7391 15.6522 26.4456 15.6522 26.0869V25.7608C15.6522 25.4021 15.3587 25.1086 15 25.1086Z" fill="#407BFF"/>
<path d="M4.23912 14.3479H3.91304C3.55434 14.3479 3.26086 14.6414 3.26086 15.0001C3.26086 15.3588 3.55434 15.6522 3.91304 15.6522H4.23912C4.59782 15.6522 4.8913 15.3588 4.8913 15.0001C4.8913 14.6414 4.59782 14.3479 4.23912 14.3479Z" fill="#407BFF"/>
<path d="M26.087 14.3479H25.7609C25.4022 14.3479 25.1087 14.6414 25.1087 15.0001C25.1087 15.3588 25.4022 15.6522 25.7609 15.6522H26.087C26.4457 15.6522 26.7391 15.3588 26.7391 15.0001C26.7391 14.6414 26.4457 14.3479 26.087 14.3479Z" fill="#407BFF"/>
<path d="M7.63043 6.71738C7.36956 6.45651 6.97825 6.45651 6.71738 6.71738C6.45651 6.97825 6.45651 7.36955 6.71738 7.63042L6.94564 7.85868C7.07608 7.98912 7.23912 8.05434 7.40217 8.05434C7.56521 8.05434 7.72825 7.98912 7.85869 7.85868C8.11956 7.59781 8.11956 7.20651 7.85869 6.94564L7.63043 6.71738Z" fill="#407BFF"/>
<path d="M6.94564 22.1415L6.71738 22.3697C6.45651 22.6306 6.45651 23.0219 6.71738 23.2828C6.84782 23.4132 7.01086 23.4784 7.1739 23.4784C7.33695 23.4784 7.49999 23.4132 7.63043 23.2828L7.85869 23.0545C8.11956 22.7936 8.11956 22.4023 7.85869 22.1415C7.59782 21.8806 7.20651 21.8806 6.94564 22.1415Z" fill="#407BFF"/>
<path d="M22.3696 6.71738L22.1413 6.94564C21.8805 7.20651 21.8805 7.59781 22.1413 7.85868C22.2718 7.98912 22.4348 8.05434 22.5978 8.05434C22.7609 8.05434 22.9239 7.98912 23.0544 7.85868L23.2826 7.63042C23.5435 7.36955 23.5435 6.97825 23.2826 6.71738C23.0218 6.45651 22.6305 6.45651 22.3696 6.71738Z" fill="#407BFF"/>
<path d="M15.6522 14.7391V8.80427C15.6522 8.44558 15.3587 8.1521 15 8.1521C14.6413 8.1521 14.3478 8.44558 14.3478 8.80427V14.9999C14.3478 15.163 14.4131 15.326 14.5435 15.4564L21.6848 22.5978C21.8152 22.7282 21.9783 22.7934 22.1413 22.7934C22.3043 22.7934 22.4674 22.7282 22.5978 22.5978C22.8587 22.3369 22.8587 21.9456 22.5978 21.6847L15.6522 14.7391Z" fill="#407BFF"/>
<path d="M15 0C6.71739 0 0 6.71739 0 15C0 23.2826 6.71739 30 15 30C23.2826 30 30 23.2826 30 15C30 6.71739 23.2826 0 15 0ZM15 28.6957C7.43478 28.6957 1.30435 22.5652 1.30435 15C1.30435 7.43478 7.43478 1.30435 15 1.30435C22.5652 1.30435 28.6957 7.43478 28.6957 15C28.6957 22.5652 22.5652 28.6957 15 28.6957Z" fill="#407BFF"/>
</svg>
