<svg width="135" height="135" viewBox="0 0 135 135" fill="none" xmlns="http://www.w3.org/2000/svg">
<path d="M67.4999 0C30.2812 0 0 30.2812 0 67.4999C0 104.719 30.2812 135 67.4999 135C104.719 135 135 104.719 135 67.4999C135 30.2812 104.719 0 67.4999 0ZM67.4999 129.13C33.5151 129.13 5.86947 101.485 5.86947 67.4999C5.86947 33.5151 33.5151 5.86947 67.4999 5.86947C101.485 5.86947 129.13 33.5151 129.13 67.4999C129.13 101.485 101.485 129.13 67.4999 129.13Z" fill="#407BFF"/>
<path d="M95.9907 91.8411L70.4347 66.2849V20.5436C70.4347 18.9236 69.1199 17.6087 67.4999 17.6087C65.8799 17.6087 64.565 18.9236 64.565 20.5436V67.5002C64.565 68.2807 64.8762 69.0263 65.422 69.578L91.8351 95.991C92.4104 96.5603 93.1615 96.8481 93.9129 96.8481C94.6643 96.8481 95.4154 96.5605 95.9907 95.991C97.1353 94.8462 97.1353 92.9857 95.9907 91.8411Z" fill="#407BFF"/>
</svg>
