<svg width="145" height="145" viewBox="0 0 145 145" fill="none" xmlns="http://www.w3.org/2000/svg">
<path d="M129.141 24.9219H15.8594C12.2553 24.9257 8.79986 26.3591 6.25137 28.9076C3.70287 31.4561 2.26945 34.9115 2.26562 38.5156V106.484C2.26945 110.088 3.70287 113.544 6.25137 116.092C8.79986 118.641 12.2553 120.074 15.8594 120.078H129.141C132.745 120.074 136.2 118.641 138.749 116.092C141.297 113.544 142.731 110.088 142.734 106.484V38.5156C142.731 34.9115 141.297 31.4561 138.749 28.9076C136.2 26.3591 132.745 24.9257 129.141 24.9219ZM6.79688 43.0469H21.7188L8.1251 56.6406H6.79688V43.0469ZM98.7501 56.6406H87.0312L100.625 43.0469H112.344L98.7501 56.6406ZM118.75 43.0469H130.469L116.875 56.6406H105.156L118.75 43.0469ZM80.6251 56.6406H68.9062L82.4999 43.0469H94.2188L80.6251 56.6406ZM62.5001 56.6406H50.7812L64.3749 43.0469H76.0938L62.5001 56.6406ZM44.3751 56.6406H32.6562L46.2499 43.0469H57.9688L44.3751 56.6406ZM26.2501 56.6406H14.5312L28.1249 43.0469H39.8438L26.2501 56.6406ZM138.203 106.484C138.2 108.887 137.245 111.191 135.546 112.89C133.847 114.589 131.543 115.544 129.141 115.547H15.8594C13.4567 115.544 11.1532 114.589 9.4542 112.89C7.75524 111.191 6.79957 108.887 6.79688 106.484V61.1719H138.203V106.484ZM138.203 56.6406H123.281L136.875 43.0469H138.203V56.6406ZM6.79688 38.5156C6.79957 36.1129 7.75524 33.8094 9.4542 32.1105C11.1532 30.4115 13.4567 29.4558 15.8594 29.4531H129.141C131.543 29.4558 133.847 30.4115 135.546 32.1105C137.245 33.8094 138.2 36.1129 138.203 38.5156H6.79688Z" fill="#407BFF"/>
<path d="M72.5 65.7031H13.5938C12.9929 65.7031 12.4166 65.9418 11.9917 66.3667C11.5668 66.7916 11.3281 67.3679 11.3281 67.9688V81.5625C11.3281 82.1634 11.5668 82.7397 11.9917 83.1645C12.4166 83.5894 12.9929 83.8281 13.5938 83.8281H72.5C73.1009 83.8281 73.6772 83.5894 74.102 83.1645C74.5269 82.7397 74.7656 82.1634 74.7656 81.5625V67.9688C74.7656 67.3679 74.5269 66.7916 74.102 66.3667C73.6772 65.9418 73.1009 65.7031 72.5 65.7031ZM70.2344 79.2969H15.8594V70.2344H70.2344V79.2969Z" fill="#407BFF"/>
<path d="M27.1875 86.0938H13.5938C12.9929 86.0938 12.4166 86.3324 11.9917 86.7573C11.5668 87.1822 11.3281 87.7585 11.3281 88.3594V97.4219C11.3281 98.0228 11.5668 98.599 11.9917 99.0239C12.4166 99.4488 12.9929 99.6875 13.5938 99.6875H27.1875C27.7884 99.6875 28.3647 99.4488 28.7895 99.0239C29.2144 98.599 29.4531 98.0228 29.4531 97.4219V88.3594C29.4531 87.7585 29.2144 87.1822 28.7895 86.7573C28.3647 86.3324 27.7884 86.0938 27.1875 86.0938ZM24.9219 95.1562H15.8594V90.625H24.9219V95.1562Z" fill="#407BFF"/>
<path d="M131.406 106.484H106.484C105.883 106.484 105.307 106.723 104.882 107.148C104.457 107.573 104.219 108.149 104.219 108.75C104.219 109.351 104.457 109.927 104.882 110.352C105.307 110.777 105.883 111.016 106.484 111.016H131.406C132.007 111.016 132.583 110.777 133.008 110.352C133.433 109.927 133.672 109.351 133.672 108.75C133.672 108.149 133.433 107.573 133.008 107.148C132.583 106.723 132.007 106.484 131.406 106.484Z" fill="#407BFF"/>
<path d="M131.406 99.6875H122.344C121.743 99.6875 121.167 99.9262 120.742 100.351C120.317 100.776 120.078 101.352 120.078 101.953C120.078 102.554 120.317 103.13 120.742 103.555C121.167 103.98 121.743 104.219 122.344 104.219H131.406C132.007 104.219 132.583 103.98 133.008 103.555C133.433 103.13 133.672 102.554 133.672 101.953C133.672 101.352 133.433 100.776 133.008 100.351C132.583 99.9262 132.007 99.6875 131.406 99.6875Z" fill="#407BFF"/>
</svg>
