<svg width="140" height="140" viewBox="0 0 140 140" fill="none" xmlns="http://www.w3.org/2000/svg">
<path d="M61.25 65.625C62.9905 65.625 64.6597 64.9336 65.8904 63.7029C67.1211 62.4722 67.8125 60.803 67.8125 59.0625V50.3125H63.4375V59.0625C63.4375 59.6427 63.207 60.1991 62.7968 60.6093C62.3866 61.0195 61.8302 61.25 61.25 61.25C60.6698 61.25 60.1134 61.0195 59.7032 60.6093C59.293 60.1991 59.0625 59.6427 59.0625 59.0625V50.3125H54.6875V59.0625C54.6875 60.803 55.3789 62.4722 56.6096 63.7029C57.8403 64.9336 59.5095 65.625 61.25 65.625Z" fill="#407BFF"/>
<path d="M74.2722 71.4328L70.9668 68.5672C69.6789 69.8002 68.1527 70.7573 66.4819 71.3798C64.8111 72.0023 63.0307 72.2771 61.25 72.1875C59.4692 72.2771 57.6889 72.0023 56.018 71.3798C54.3472 70.7573 52.8211 69.8002 51.5331 68.5672L48.2278 71.4328C49.9199 73.1496 51.9529 74.493 54.1957 75.3765C56.4385 76.26 58.8415 76.664 61.25 76.5625C63.6584 76.664 66.0614 76.26 68.3042 75.3765C70.547 74.493 72.58 73.1496 74.2722 71.4328Z" fill="#407BFF"/>
<path d="M111.562 87.5C108.335 87.4998 105.141 88.151 102.172 89.4148C99.2024 90.6785 96.5186 92.5286 94.2812 94.8544L83.1053 91.9209C81.5127 89.7661 79.1845 88.2707 76.5625 87.7188V83.3569C80.2405 81.2276 83.4362 78.3576 85.9471 74.9287C88.458 71.4998 90.2293 67.5868 91.1488 63.4375H91.875C94.1956 63.4375 96.4212 62.5156 98.0622 60.8747C99.7031 59.2337 100.625 57.0081 100.625 54.6875C100.625 52.3669 99.7031 50.1413 98.0622 48.5003C96.4212 46.8594 94.1956 45.9375 91.875 45.9375V13.125C91.8751 12.6657 91.7306 12.218 91.4621 11.8454C91.1935 11.4728 90.8145 11.1942 90.3788 11.0491C89.5606 10.7778 70.2516 4.375 61.25 4.375C50.0434 4.375 32.7731 10.8019 32.0447 11.0753C31.6275 11.2317 31.2679 11.5118 31.0142 11.8781C30.7605 12.2444 30.6247 12.6794 30.625 13.125V45.9375C28.3044 45.9375 26.0788 46.8594 24.4378 48.5003C22.7969 50.1413 21.875 52.3669 21.875 54.6875C21.875 57.0081 22.7969 59.2337 24.4378 60.8747C26.0788 62.5156 28.3044 63.4375 30.625 63.4375H31.3512C32.2707 67.5868 34.042 71.4998 36.5529 74.9287C39.0638 78.3576 42.2595 81.2276 45.9375 83.3569V87.7188C43.3139 88.2683 40.9842 89.7641 39.3925 91.9209L25.5938 95.5566C19.5151 97.1476 14.1352 100.709 10.2959 105.683C6.45659 110.657 4.37437 116.763 4.375 123.047V133.438C4.375 134.018 4.60547 134.574 5.0157 134.984C5.42594 135.395 5.98234 135.625 6.5625 135.625H111.562C117.944 135.625 124.065 133.09 128.577 128.577C133.09 124.065 135.625 117.944 135.625 111.562C135.625 105.181 133.09 99.0603 128.577 94.5477C124.065 90.0351 117.944 87.5 111.562 87.5ZM80.9375 98.4375V100.999C79.5218 100.5 77.9782 100.5 76.5625 100.999V92.2491C77.8411 92.7032 78.9479 93.5417 79.7312 94.6496C80.5145 95.7575 80.9358 97.0807 80.9375 98.4375ZM96.25 54.6875C96.25 55.8478 95.7891 56.9606 94.9686 57.7811C94.1481 58.6016 93.0353 59.0625 91.875 59.0625V50.3125C93.0353 50.3125 94.1481 50.7734 94.9686 51.5939C95.7891 52.4144 96.25 53.5272 96.25 54.6875ZM35 14.6562C39.3291 13.125 52.5897 8.75 61.25 8.75C68.1866 8.75 82.7903 13.2169 87.5 14.7175V32.8125H35V14.6562ZM87.1259 37.1875C86.6718 38.4661 85.8333 39.5729 84.7254 40.3562C83.6175 41.1395 82.2943 41.5608 80.9375 41.5625H41.5625C40.2057 41.5608 38.8825 41.1395 37.7746 40.3562C36.6667 39.5729 35.8281 38.4661 35.3741 37.1875H87.1259ZM30.625 59.0625C29.4647 59.0625 28.3519 58.6016 27.5314 57.7811C26.7109 56.9606 26.25 55.8478 26.25 54.6875C26.25 53.5272 26.7109 52.4144 27.5314 51.5939C28.3519 50.7734 29.4647 50.3125 30.625 50.3125V59.0625ZM35 56.875V43.6931C36.8821 45.1408 39.188 45.9295 41.5625 45.9375H80.9375C83.312 45.9295 85.6179 45.1408 87.5 43.6931V56.875C87.5 63.8369 84.7344 70.5137 79.8116 75.4366C74.8887 80.3594 68.2119 83.125 61.25 83.125C54.2881 83.125 47.6113 80.3594 42.6884 75.4366C37.7656 70.5137 35 63.8369 35 56.875ZM61.25 87.5C64.9912 87.4943 68.6992 86.798 72.1875 85.4459V99.7194L61.25 110.657L50.3125 99.7194V85.4459C53.8008 86.798 57.5088 87.4943 61.25 87.5ZM41.5625 98.4375C41.5642 97.0807 41.9855 95.7575 42.7688 94.6496C43.5521 93.5417 44.6589 92.7032 45.9375 92.2491V100.999C44.5218 100.5 42.9782 100.5 41.5625 100.999V98.4375ZM32.8125 131.25V115.938H28.4375V131.25H8.75V123.047C8.74916 117.731 10.5102 112.565 13.7578 108.356C17.0053 104.148 21.5561 101.134 26.6984 99.7872L37.3341 96.9894C37.253 97.4683 37.204 97.9521 37.1875 98.4375V107.188C37.1875 107.768 37.418 108.324 37.8282 108.734C38.2384 109.145 38.7948 109.375 39.375 109.375C39.9552 109.375 40.5116 109.145 40.9218 108.734C41.332 108.324 41.5625 107.768 41.5625 107.188C41.5625 106.607 41.793 106.051 42.2032 105.641C42.6134 105.23 43.1698 105 43.75 105C44.3302 105 44.8866 105.23 45.2968 105.641C45.707 106.051 45.9375 106.607 45.9375 107.188C45.9375 107.768 46.168 108.324 46.5782 108.734C46.9884 109.145 47.5448 109.375 48.125 109.375C48.7052 109.375 49.2616 109.145 49.6718 108.734C50.082 108.324 50.3125 107.768 50.3125 107.188V105.906L59.7034 115.297C60.1137 115.707 60.67 115.937 61.25 115.937C61.83 115.937 62.3863 115.707 62.7966 115.297L72.1875 105.906V107.188C72.1875 107.768 72.418 108.324 72.8282 108.734C73.2384 109.145 73.7948 109.375 74.375 109.375C74.9552 109.375 75.5116 109.145 75.9218 108.734C76.332 108.324 76.5625 107.768 76.5625 107.188C76.5625 106.607 76.793 106.051 77.2032 105.641C77.6134 105.23 78.1698 105 78.75 105C79.3302 105 79.8866 105.23 80.2968 105.641C80.707 106.051 80.9375 106.607 80.9375 107.188C80.9375 107.768 81.168 108.324 81.5782 108.734C81.9884 109.145 82.5448 109.375 83.125 109.375C83.7052 109.375 84.2616 109.145 84.6718 108.734C85.082 108.324 85.3125 107.768 85.3125 107.188V98.4375C85.2959 97.9506 85.2469 97.4654 85.1659 96.985L91.3216 98.6016C87.9598 103.82 86.7545 110.14 87.9594 116.23C89.1643 122.32 92.6854 127.705 97.7812 131.25H32.8125ZM111.562 131.25C107.669 131.25 103.862 130.095 100.625 127.932C97.3871 125.769 94.8637 122.694 93.3736 119.097C91.8835 115.499 91.4936 111.541 92.2533 107.722C93.0129 103.903 94.888 100.395 97.6413 97.6413C100.395 94.888 103.903 93.0129 107.722 92.2533C111.541 91.4936 115.499 91.8835 119.097 93.3736C122.694 94.8637 125.769 97.3871 127.932 100.625C130.095 103.862 131.25 107.669 131.25 111.562C131.244 116.782 129.167 121.786 125.477 125.477C121.786 129.167 116.782 131.244 111.562 131.25Z" fill="#407BFF"/>
<path d="M122.5 98.4375H100.625C99.4647 98.4375 98.3519 98.8984 97.5314 99.7189C96.7109 100.539 96.25 101.652 96.25 102.812V120.312C96.25 121.473 96.7109 122.586 97.5314 123.406C98.3519 124.227 99.4647 124.688 100.625 124.688H122.5C123.66 124.688 124.773 124.227 125.594 123.406C126.414 122.586 126.875 121.473 126.875 120.312V102.812C126.875 101.652 126.414 100.539 125.594 99.7189C124.773 98.8984 123.66 98.4375 122.5 98.4375ZM122.5 105H118.125V102.812H122.5V105ZM113.75 102.812V107.188H109.375V102.812H113.75ZM105 102.812V105H100.625V102.812H105ZM100.625 120.312V109.375H105C105 109.955 105.23 110.512 105.641 110.922C106.051 111.332 106.607 111.562 107.188 111.562H115.938C116.518 111.562 117.074 111.332 117.484 110.922C117.895 110.512 118.125 109.955 118.125 109.375H122.5V120.312H100.625Z" fill="#407BFF"/>
<path d="M48.125 52.5C49.3331 52.5 50.3125 51.5206 50.3125 50.3125C50.3125 49.1044 49.3331 48.125 48.125 48.125C46.9169 48.125 45.9375 49.1044 45.9375 50.3125C45.9375 51.5206 46.9169 52.5 48.125 52.5Z" fill="#407BFF"/>
<path d="M74.375 52.5C75.5831 52.5 76.5625 51.5206 76.5625 50.3125C76.5625 49.1044 75.5831 48.125 74.375 48.125C73.1669 48.125 72.1875 49.1044 72.1875 50.3125C72.1875 51.5206 73.1669 52.5 74.375 52.5Z" fill="#407BFF"/>
</svg>
