<svg width="30" height="30" viewBox="0 0 30 30" fill="none" xmlns="http://www.w3.org/2000/svg">
<path d="M15.0001 0C9.57907 0 5.16882 4.40737 5.16882 9.82482C5.16882 15.0313 14.1033 29.1195 14.4836 29.7167C14.596 29.8931 14.7908 30 15.0001 30C15.2093 30 15.4041 29.8931 15.5164 29.7167C15.8968 29.1195 24.8312 15.0313 24.8312 9.82482C24.8312 4.40737 20.4209 0 15.0001 0ZM15.0001 28.2323C14.1915 26.9243 12.5505 24.2167 10.9256 21.2167C7.9606 15.7421 6.39337 11.8029 6.39337 9.82482C6.39331 5.08255 10.2543 1.22449 15.0001 1.22449C19.7458 1.22449 23.6067 5.08255 23.6067 9.82482C23.6067 11.8029 22.0394 15.7421 19.0744 21.2167C17.4495 24.2167 15.8086 26.9243 15.0001 28.2323Z" fill="#407BFF"/>
<path d="M15 4.65747C12.4357 4.65747 10.3494 6.687 10.3494 9.18159C10.3494 11.6761 12.4357 13.7055 15 13.7055C17.5643 13.7055 19.6505 11.6761 19.6505 9.18159C19.6505 6.687 17.5643 4.65747 15 4.65747ZM15 12.481C13.1109 12.481 11.5739 11.0009 11.5739 9.18153C11.5739 7.36212 13.1109 5.8819 15 5.8819C16.8891 5.8819 18.4261 7.36212 18.4261 9.18153C18.4261 11.0009 16.8891 12.481 15 12.481Z" fill="#407BFF"/>
</svg>
