<svg width="221" height="55" viewBox="0 0 221 55" fill="none" xmlns="http://www.w3.org/2000/svg">
<path d="M69.776 36V18.96H81.224V21.864H73.088V26.256H79.856V28.944H73.088V36H69.776ZM88.3033 36.24C86.9273 36.24 85.7433 35.944 84.7513 35.352C83.7753 34.744 83.0233 33.944 82.4953 32.952C81.9673 31.96 81.7033 30.888 81.7033 29.736C81.7033 28.568 81.9673 27.488 82.4953 26.496C83.0393 25.504 83.7993 24.712 84.7753 24.12C85.7673 23.512 86.9433 23.208 88.3033 23.208C89.6633 23.208 90.8313 23.512 91.8073 24.12C92.7993 24.712 93.5593 25.504 94.0873 26.496C94.6153 27.488 94.8793 28.568 94.8793 29.736C94.8793 30.888 94.6153 31.96 94.0873 32.952C93.5593 33.944 92.7993 34.744 91.8073 35.352C90.8313 35.944 89.6633 36.24 88.3033 36.24ZM85.0153 29.736C85.0153 30.472 85.1593 31.128 85.4473 31.704C85.7353 32.264 86.1273 32.704 86.6233 33.024C87.1193 33.344 87.6793 33.504 88.3033 33.504C88.9113 33.504 89.4633 33.344 89.9593 33.024C90.4553 32.688 90.8473 32.24 91.1353 31.68C91.4393 31.104 91.5913 30.448 91.5913 29.712C91.5913 28.992 91.4393 28.352 91.1353 27.792C90.8473 27.216 90.4553 26.768 89.9593 26.448C89.4633 26.112 88.9113 25.944 88.3033 25.944C87.6793 25.944 87.1193 26.112 86.6233 26.448C86.1273 26.768 85.7353 27.216 85.4473 27.792C85.1593 28.352 85.0153 29 85.0153 29.736ZM102.858 36.24C101.482 36.24 100.298 35.944 99.3059 35.352C98.3299 34.744 97.5779 33.944 97.0499 32.952C96.5219 31.96 96.2579 30.888 96.2579 29.736C96.2579 28.568 96.5219 27.488 97.0499 26.496C97.5939 25.504 98.3539 24.712 99.3299 24.12C100.322 23.512 101.498 23.208 102.858 23.208C104.218 23.208 105.386 23.512 106.362 24.12C107.354 24.712 108.114 25.504 108.642 26.496C109.17 27.488 109.434 28.568 109.434 29.736C109.434 30.888 109.17 31.96 108.642 32.952C108.114 33.944 107.354 34.744 106.362 35.352C105.386 35.944 104.218 36.24 102.858 36.24ZM99.5699 29.736C99.5699 30.472 99.7139 31.128 100.002 31.704C100.29 32.264 100.682 32.704 101.178 33.024C101.674 33.344 102.234 33.504 102.858 33.504C103.466 33.504 104.018 33.344 104.514 33.024C105.01 32.688 105.402 32.24 105.69 31.68C105.994 31.104 106.146 30.448 106.146 29.712C106.146 28.992 105.994 28.352 105.69 27.792C105.402 27.216 105.01 26.768 104.514 26.448C104.018 26.112 103.466 25.944 102.858 25.944C102.234 25.944 101.674 26.112 101.178 26.448C100.682 26.768 100.29 27.216 100.002 27.792C99.7139 28.352 99.5699 29 99.5699 29.736ZM110.837 29.712C110.837 28.512 111.077 27.416 111.557 26.424C112.037 25.432 112.701 24.648 113.549 24.072C114.397 23.496 115.365 23.208 116.453 23.208C117.381 23.208 118.213 23.44 118.949 23.904C119.701 24.352 120.285 24.928 120.701 25.632V18.48H123.917V32.4C123.917 32.752 123.973 33 124.085 33.144C124.197 33.272 124.389 33.352 124.661 33.384V36C124.085 36.112 123.629 36.168 123.293 36.168C122.717 36.168 122.237 36.024 121.853 35.736C121.485 35.448 121.277 35.072 121.229 34.608L121.181 33.816C120.717 34.6 120.085 35.2 119.285 35.616C118.501 36.032 117.677 36.24 116.813 36.24C115.645 36.24 114.613 35.952 113.717 35.376C112.821 34.784 112.117 34 111.605 33.024C111.093 32.032 110.837 30.928 110.837 29.712ZM120.701 31.392V28.392C120.445 27.688 120.005 27.104 119.381 26.64C118.757 26.176 118.117 25.944 117.461 25.944C116.805 25.944 116.229 26.128 115.733 26.496C115.237 26.848 114.853 27.32 114.581 27.912C114.309 28.488 114.173 29.112 114.173 29.784C114.173 30.472 114.325 31.104 114.629 31.68C114.933 32.24 115.341 32.688 115.853 33.024C116.381 33.344 116.981 33.504 117.653 33.504C118.261 33.504 118.861 33.304 119.453 32.904C120.061 32.504 120.477 32 120.701 31.392Z" fill="black"/>
<path d="M127.385 36V18.96H133.577C135.433 18.96 136.985 19.344 138.233 20.112C139.481 20.864 140.417 21.888 141.041 23.184C141.665 24.464 141.977 25.888 141.977 27.456C141.977 29.184 141.633 30.688 140.945 31.968C140.257 33.248 139.281 34.24 138.017 34.944C136.753 35.648 135.273 36 133.577 36H127.385ZM138.641 27.456C138.641 26.352 138.441 25.384 138.041 24.552C137.641 23.704 137.065 23.048 136.313 22.584C135.561 22.104 134.649 21.864 133.577 21.864H130.697V33.096H133.577C134.665 33.096 135.585 32.856 136.337 32.376C137.089 31.88 137.657 31.208 138.041 30.36C138.441 29.496 138.641 28.528 138.641 27.456ZM150.085 36.24C148.725 36.24 147.549 35.944 146.557 35.352C145.581 34.76 144.821 33.976 144.277 33C143.733 32.008 143.461 30.936 143.461 29.784C143.461 28.6 143.725 27.512 144.253 26.52C144.797 25.512 145.565 24.712 146.557 24.12C147.549 23.512 148.733 23.208 150.109 23.208C151.485 23.208 152.661 23.512 153.637 24.12C154.613 24.712 155.357 25.504 155.869 26.496C156.397 27.472 156.661 28.528 156.661 29.664C156.661 30.08 156.637 30.44 156.589 30.744H146.869C146.949 31.72 147.309 32.488 147.949 33.048C148.605 33.608 149.357 33.888 150.205 33.888C150.845 33.888 151.445 33.736 152.005 33.432C152.581 33.112 152.973 32.696 153.181 32.184L155.941 32.952C155.477 33.912 154.733 34.704 153.709 35.328C152.685 35.936 151.477 36.24 150.085 36.24ZM146.797 28.704H153.373C153.277 27.76 152.917 27 152.293 26.424C151.685 25.832 150.941 25.536 150.061 25.536C149.197 25.536 148.453 25.832 147.829 26.424C147.221 27 146.877 27.76 146.797 28.704ZM158.596 18.48H161.812V31.968C161.812 32.56 161.908 32.952 162.1 33.144C162.292 33.336 162.556 33.432 162.892 33.432C163.148 33.432 163.412 33.4 163.684 33.336C163.956 33.272 164.196 33.192 164.404 33.096L164.836 35.544C164.404 35.752 163.9 35.912 163.324 36.024C162.748 36.136 162.228 36.192 161.764 36.192C160.756 36.192 159.972 35.928 159.412 35.4C158.868 34.856 158.596 34.088 158.596 33.096V18.48ZM166.237 21.672V18.48H169.453V21.672H166.237ZM166.237 36V23.424H169.453V36H166.237ZM175.739 36L171.107 23.424H174.443L177.611 33.072L180.803 23.424H183.851L179.243 36H175.739ZM190.96 36.24C189.6 36.24 188.424 35.944 187.432 35.352C186.456 34.76 185.696 33.976 185.152 33C184.608 32.008 184.336 30.936 184.336 29.784C184.336 28.6 184.6 27.512 185.128 26.52C185.672 25.512 186.44 24.712 187.432 24.12C188.424 23.512 189.608 23.208 190.984 23.208C192.36 23.208 193.536 23.512 194.512 24.12C195.488 24.712 196.232 25.504 196.744 26.496C197.272 27.472 197.536 28.528 197.536 29.664C197.536 30.08 197.512 30.44 197.464 30.744H187.744C187.824 31.72 188.184 32.488 188.824 33.048C189.48 33.608 190.232 33.888 191.08 33.888C191.72 33.888 192.32 33.736 192.88 33.432C193.456 33.112 193.848 32.696 194.056 32.184L196.816 32.952C196.352 33.912 195.608 34.704 194.584 35.328C193.56 35.936 192.352 36.24 190.96 36.24ZM187.672 28.704H194.248C194.152 27.76 193.792 27 193.168 26.424C192.56 25.832 191.816 25.536 190.936 25.536C190.072 25.536 189.328 25.832 188.704 26.424C188.096 27 187.752 27.76 187.672 28.704ZM206.983 26.208C206.007 26.208 205.135 26.4 204.367 26.784C203.599 27.152 203.047 27.688 202.711 28.392V36H199.495V23.424H202.447V26.112C202.879 25.248 203.439 24.568 204.127 24.072C204.831 23.576 205.567 23.304 206.335 23.256C206.671 23.256 206.887 23.264 206.983 23.28V26.208ZM209.041 38.448C209.633 38.608 210.113 38.688 210.48 38.688C210.913 38.688 211.257 38.504 211.513 38.136C211.785 37.784 212.089 37.072 212.425 36L207.457 23.424H210.793L214.177 32.712L217.153 23.424H220.225L214.945 38.496C214.657 39.36 214.137 40.072 213.385 40.632C212.649 41.208 211.737 41.496 210.649 41.496C210.121 41.496 209.585 41.408 209.041 41.232V38.448Z" fill="#407BFF"/>
<g clip-path="url(#clip0)">
<path d="M47.3643 43.5807V22.5925L11.7353 24.1204V45.1086C11.7352 45.6172 11.9869 46.1259 12.4904 46.4166L26.6045 54.5654C27.6083 55.1449 28.845 55.1449 29.8489 54.5654L46.6094 44.8887C47.1128 44.598 47.3643 44.0894 47.3643 43.5807Z" fill="url(#paint0_linear)"/>
<path d="M12.4904 22.8125L29.2509 13.1359C30.2546 12.5563 31.4914 12.5563 32.4952 13.1359L46.6094 21.2847C47.6161 21.8659 47.6161 23.319 46.6094 23.9003L29.8489 33.577C28.8451 34.1565 27.6084 34.1565 26.6045 33.577L12.4904 25.4281C11.4836 24.8469 11.4836 23.3938 12.4904 22.8125Z" fill="url(#paint1_linear)"/>
<path d="M46.6093 21.2847L32.4951 13.1359C31.4914 12.5563 30.2546 12.5563 29.2508 13.1359L12.4903 22.8125C11.9868 23.1032 11.7351 23.612 11.7352 24.1206V45.1086C11.7351 45.6172 11.9868 46.1259 12.4903 46.4166L26.6044 54.5654C27.6082 55.1449 28.8449 55.1449 29.8488 54.5654L46.6093 44.8887C47.1128 44.598 47.3645 44.0894 47.3644 43.5807V22.5925C47.3644 22.0839 47.1127 21.5754 46.6093 21.2847Z" fill="url(#paint2_linear)"/>
<path d="M38.4464 12.4244L20.6542 13.9112V34.0031C20.6539 34.0296 20.6539 34.0561 20.6542 34.0826V34.1428L20.6555 34.1426C20.6946 35.2857 21.4088 36.3723 22.8249 37.1899C26.0414 39.047 31.6598 38.8141 35.374 36.6697C37.4767 35.4558 38.5179 33.8893 38.4422 32.4217L38.4465 32.4213V12.4244H38.4464Z" fill="#C9EDFF"/>
<path d="M30.1723 18.2421C35.0757 17.6446 38.7766 14.9114 38.4386 12.1374C38.1006 9.36331 33.8516 7.59885 28.9482 8.19634C24.0448 8.79384 20.3439 11.527 20.6819 14.3011C21.0199 17.0751 25.2689 18.8396 30.1723 18.2421Z" fill="#C9EDFF"/>
<path d="M37.0199 15.1876L22.0806 16.4361V33.3063C22.0803 33.3285 22.0803 33.3507 22.0806 33.373V33.4235L22.0817 33.4233C22.1145 34.3832 22.7141 35.2955 23.9032 35.982C26.604 37.5414 31.3214 37.3458 34.4401 35.5453C36.2057 34.5259 37.0798 33.2108 37.0163 31.9784L37.02 31.9781V15.1876H37.0199Z" fill="white"/>
<path d="M30.0742 20.0741C34.1914 19.5724 37.2989 17.2774 37.0151 14.9482C36.7312 12.6189 33.1635 11.1374 29.0464 11.639C24.9293 12.1407 21.8218 14.4357 22.1056 16.7649C22.3894 19.0942 25.9571 20.5758 30.0742 20.0741Z" fill="#DFF4FF"/>
<path d="M34.8322 10.454C34.8325 10.4341 34.8325 10.4142 34.8322 10.3945V8.182L34.3729 8.22121C34.1666 7.9751 33.8906 7.74716 33.5432 7.5466C31.6332 6.44381 28.2968 6.58217 26.0912 7.85554C25.4733 8.21229 25.0098 8.62028 24.7046 9.04707L24.2667 9.08445V11.2969V11.2988V11.299C24.267 11.999 24.6911 12.6674 25.5562 13.1669C27.4663 14.2697 30.8027 14.1313 33.0083 12.858C34.2004 12.1696 34.8178 11.2907 34.8322 10.454Z" fill="url(#paint3_linear)"/>
<path d="M36.8822 6.73965C36.8827 6.71204 36.8827 6.68454 36.8822 6.65704V3.58596L36.2447 3.64042C35.9584 3.29871 35.5753 2.98235 35.0931 2.70402C32.4417 1.17326 27.8106 1.36522 24.749 3.13274C23.8914 3.62796 23.248 4.19429 22.8243 4.78661L22.2165 4.8385V7.90958V7.91227V7.91237C22.2169 8.88422 22.8056 9.81191 24.0063 10.5052C26.6577 12.036 31.2889 11.844 34.3504 10.0764C36.0051 9.12098 36.8621 7.90088 36.8821 6.73965H36.8822Z" fill="url(#paint4_linear)"/>
<path d="M34.3505 7.00563C37.412 5.238 37.7445 2.56427 35.0932 1.03351C32.4418 -0.49725 27.8107 -0.305287 24.7491 1.46234C21.6876 3.22997 21.3552 5.9037 24.0064 7.43446C26.6578 8.96511 31.289 8.77315 34.3505 7.00563Z" fill="url(#paint5_linear)"/>
<path d="M33.7248 42.3441C29.3124 43.3208 28.4944 35.3725 31.8976 24.5911C35.3009 13.8098 41.6366 4.27799 46.049 3.30131C50.4613 2.32463 51.2793 10.2729 47.8761 21.0543C44.4729 31.8357 38.137 41.3674 33.7248 42.3441Z" fill="url(#paint6_linear)"/>
<path d="M37.2965 12.3479C37.2967 12.3477 37.2968 12.3476 37.297 12.3475C38.9684 12.429 40.3631 12.8426 41.4211 13.297C41.8247 13.4704 41.6321 14.076 41.2007 13.9932C39.2737 13.6239 37.6883 13.6267 36.498 13.7536C36.7611 13.2732 37.0275 12.8046 37.2965 12.3479Z" fill="#EBCBA0"/>
<path d="M31.9158 24.5336C31.993 24.4771 32.0655 24.4241 32.1428 24.3676C32.2606 24.3688 32.3825 24.3721 32.5108 24.3786C34.1703 24.4621 35.5561 24.8729 36.6092 25.3245C37.0162 25.4991 36.8308 26.1069 36.3958 26.0235C34.3794 25.6369 32.7374 25.6579 31.5303 25.802C31.6523 25.3837 31.7803 24.9612 31.9158 24.5336Z" fill="#EBCBA0"/>
<path d="M34.6558 17.4323C37.5416 17.6865 39.8125 18.6033 41.3079 19.4073C41.688 19.6116 41.4642 20.1886 41.0448 20.0868C38.1483 19.3836 35.7141 19.2517 33.8147 19.3552C34.0867 18.7035 34.3675 18.0619 34.6558 17.4323Z" fill="#EBCBA0"/>
<path d="M41.9462 28.693C41.9462 23.4298 37.6795 21.2774 32.4163 21.2774C27.153 21.2774 22.8863 23.4298 22.8863 28.693C22.8863 33.9563 27.153 38.223 32.4163 38.223C37.6795 38.223 41.9462 33.9563 41.9462 28.693Z" fill="url(#paint7_linear)"/>
<path d="M46.6093 23.9003L29.8488 33.577C28.845 34.1565 27.6083 34.1565 26.6044 33.577L12.4903 25.4281C11.987 25.1376 11.7353 24.6291 11.7352 24.1206V45.1086C11.7351 45.6172 11.9868 46.1259 12.4903 46.4166L26.6044 54.5654C27.6082 55.1449 28.8449 55.1449 29.8488 54.5654L46.6093 44.8887C47.1128 44.598 47.3645 44.0894 47.3644 43.5807V22.5925C47.3644 23.1011 47.1127 23.6097 46.6093 23.9003Z" fill="url(#paint8_linear)"/>
<path d="M29.9338 17.3182C30.467 16.6733 30.7885 15.8471 30.7885 14.9448C30.7885 12.8845 29.1183 11.2142 27.0579 11.2142C26.3657 11.2142 25.7181 11.4033 25.1625 11.7317C24.5728 10.2866 23.1543 9.2678 21.4972 9.2678C20.7372 9.2678 20.0275 9.48243 19.4247 9.85368C18.3635 8.43378 16.6692 7.51468 14.7602 7.51468C11.546 7.51468 8.94052 10.1202 8.94052 13.3344C8.94052 13.6066 8.96125 13.8737 8.99745 14.1359C7.69013 15.1485 6.84772 16.7324 6.84772 18.5139C6.84772 18.8446 6.87683 19.1684 6.93248 19.4831C5.77995 20.2706 5.02316 21.5946 5.02316 23.0957C5.02316 25.3142 6.67574 27.1455 8.81677 27.4288C9.45281 29.6801 11.5208 31.3305 13.9758 31.3305C15.1851 31.3305 16.3006 30.9298 17.1976 30.2546C18.0809 32.2814 20.1004 33.6989 22.4526 33.6989C25.6185 33.6989 28.185 31.1323 28.185 27.9664C28.185 27.5918 28.147 27.2264 28.078 26.872C28.2331 26.8868 28.39 26.895 28.549 26.895C31.2488 26.895 33.4375 24.7063 33.4375 22.0064C33.4375 19.7879 31.959 17.9156 29.9338 17.3182Z" fill="url(#paint9_linear)"/>
<path d="M13.1508 26.3328C14.5862 26.3328 15.7499 25.1692 15.7499 23.7337C15.7499 22.2983 14.5862 21.1347 13.1508 21.1347C11.7154 21.1347 10.5517 22.2983 10.5517 23.7337C10.5517 25.1692 11.7154 26.3328 13.1508 26.3328Z" fill="url(#paint10_radial)"/>
<path d="M18.6498 20.9619C19.6814 20.9619 20.5176 20.1256 20.5176 19.0941C20.5176 18.0626 19.6814 17.2264 18.6498 17.2264C17.6183 17.2264 16.7821 18.0626 16.7821 19.0941C16.7821 20.1256 17.6183 20.9619 18.6498 20.9619Z" fill="url(#paint11_radial)"/>
<path d="M16.6314 21.4182C17.3045 21.4182 17.8502 20.8725 17.8502 20.1994C17.8502 19.5262 17.3045 18.9806 16.6314 18.9806C15.9583 18.9806 15.4126 19.5262 15.4126 20.1994C15.4126 20.8725 15.9583 21.4182 16.6314 21.4182Z" fill="url(#paint12_radial)"/>
<path d="M28.5832 23.3926C29.4682 23.3926 30.1856 22.6752 30.1856 21.7903C30.1856 20.9054 29.4682 20.188 28.5832 20.188C27.6983 20.188 26.9809 20.9054 26.9809 21.7903C26.9809 22.6752 27.6983 23.3926 28.5832 23.3926Z" fill="url(#paint13_radial)"/>
<path d="M17.8833 27.9453C18.9808 27.9453 19.8706 27.0555 19.8706 25.958C19.8706 24.8604 18.9808 23.9706 17.8833 23.9706C16.7857 23.9706 15.896 24.8604 15.896 25.958C15.896 27.0555 16.7857 27.9453 17.8833 27.9453Z" fill="url(#paint14_radial)"/>
<path d="M22.4322 24.8557C23.1053 24.8557 23.651 24.31 23.651 23.6369C23.651 22.9637 23.1053 22.4181 22.4322 22.4181C21.759 22.4181 21.2134 22.9637 21.2134 23.6369C21.2134 24.31 21.759 24.8557 22.4322 24.8557Z" fill="url(#paint15_radial)"/>
<path d="M27.3479 24.4668C28.0252 24.4668 28.5742 23.9178 28.5742 23.2405C28.5742 22.5632 28.0252 22.0142 27.3479 22.0142C26.6706 22.0142 26.1216 22.5632 26.1216 23.2405C26.1216 23.9178 26.6706 24.4668 27.3479 24.4668Z" fill="url(#paint16_radial)"/>
<path d="M22.7173 30.179C23.9213 30.179 24.8973 29.203 24.8973 27.999C24.8973 26.795 23.9213 25.8189 22.7173 25.8189C21.5133 25.8189 20.5372 26.795 20.5372 27.999C20.5372 29.203 21.5133 30.179 22.7173 30.179Z" fill="url(#paint17_radial)"/>
<path d="M21.259 14.471C21.7737 14.471 22.1909 14.0538 22.1909 13.5391C22.1909 13.0245 21.7737 12.6072 21.259 12.6072C20.7443 12.6072 20.3271 13.0245 20.3271 13.5391C20.3271 14.0538 20.7443 14.471 21.259 14.471Z" fill="url(#paint18_radial)"/>
<path d="M23.1462 16.4139C23.4821 16.4139 23.7543 16.1417 23.7543 15.8058C23.7543 15.47 23.4821 15.1977 23.1462 15.1977C22.8103 15.1977 22.5381 15.47 22.5381 15.8058C22.5381 16.1417 22.8103 16.4139 23.1462 16.4139Z" fill="url(#paint19_radial)"/>
<path d="M25.5991 16.2199C25.937 16.2199 26.2109 15.946 26.2109 15.6081C26.2109 15.2701 25.937 14.9962 25.5991 14.9962C25.2611 14.9962 24.9872 15.2701 24.9872 15.6081C24.9872 15.946 25.2611 16.2199 25.5991 16.2199Z" fill="url(#paint20_radial)"/>
<path d="M23.2885 19.1211C23.8893 19.1211 24.3763 18.6227 24.3763 18.0079C24.3763 17.3931 23.8893 16.8947 23.2885 16.8947C22.6878 16.8947 22.2008 17.3931 22.2008 18.0079C22.2008 18.6227 22.6878 19.1211 23.2885 19.1211Z" fill="url(#paint21_radial)"/>
<path d="M35.419 38.7711L42.7216 34.555V29.3708L35.419 33.5869V38.7711Z" fill="#DEA861"/>
</g>
<defs>
<linearGradient id="paint0_linear" x1="25.379" y1="38.7963" x2="30.2732" y2="38.7963" gradientUnits="userSpaceOnUse">
<stop stop-color="#CC8241"/>
<stop offset="1" stop-color="#DEA861"/>
</linearGradient>
<linearGradient id="paint1_linear" x1="35.9647" y1="23.3564" x2="24.752" y2="23.3564" gradientUnits="userSpaceOnUse">
<stop stop-color="#CC8241"/>
<stop offset="1" stop-color="#DEA861"/>
</linearGradient>
<linearGradient id="paint2_linear" x1="35.9647" y1="33.8506" x2="24.7521" y2="33.8506" gradientUnits="userSpaceOnUse">
<stop stop-color="#CC8241"/>
<stop offset="1" stop-color="#DEA861"/>
</linearGradient>
<linearGradient id="paint3_linear" x1="24.2668" y1="10.3568" x2="34.8325" y2="10.3568" gradientUnits="userSpaceOnUse">
<stop stop-color="#C9EDFF"/>
<stop offset="0.4614" stop-color="#D3F1FF"/>
<stop offset="1" stop-color="#E5F7FF"/>
</linearGradient>
<linearGradient id="paint4_linear" x1="20.6977" y1="6.60473" x2="28.7332" y2="6.60473" gradientUnits="userSpaceOnUse">
<stop stop-color="#D5C9F1"/>
<stop offset="1" stop-color="#E7E3F3"/>
</linearGradient>
<linearGradient id="paint5_linear" x1="24.0056" y1="1.03287" x2="38.0329" y2="9.13162" gradientUnits="userSpaceOnUse">
<stop stop-color="#D5C9F1"/>
<stop offset="1" stop-color="#E7E3F3"/>
</linearGradient>
<linearGradient id="paint6_linear" x1="30.1233" y1="16.2604" x2="41.0675" y2="23.6163" gradientUnits="userSpaceOnUse">
<stop stop-color="#CC8241"/>
<stop offset="1" stop-color="#DEA861"/>
</linearGradient>
<linearGradient id="paint7_linear" x1="27.7999" y1="29.7502" x2="43.3382" y2="29.7502" gradientUnits="userSpaceOnUse">
<stop stop-color="#AB2C37"/>
<stop offset="1" stop-color="#FF4757"/>
</linearGradient>
<linearGradient id="paint8_linear" x1="25.379" y1="38.7963" x2="30.2732" y2="38.7963" gradientUnits="userSpaceOnUse">
<stop stop-color="#DEA861"/>
<stop offset="0.328" stop-color="#E3B67B"/>
<stop offset="0.7518" stop-color="#E9C596"/>
<stop offset="1" stop-color="#EBCBA0"/>
</linearGradient>
<linearGradient id="paint9_linear" x1="6.67348" y1="7.92041" x2="29.3578" y2="30.6047" gradientUnits="userSpaceOnUse">
<stop stop-color="#236568"/>
<stop offset="1" stop-color="#2F878A"/>
</linearGradient>
<radialGradient id="paint10_radial" cx="0" cy="0" r="1" gradientUnits="userSpaceOnUse" gradientTransform="translate(18.8525 24.9357) scale(5.57111)">
<stop stop-color="#06DAAE"/>
<stop offset="0.2214" stop-color="#0CCDA8"/>
<stop offset="0.6285" stop-color="#1DAB9A"/>
<stop offset="1" stop-color="#2F878A"/>
</radialGradient>
<radialGradient id="paint11_radial" cx="0" cy="0" r="1" gradientUnits="userSpaceOnUse" gradientTransform="translate(21.9893 24.4955) scale(7.57453)">
<stop stop-color="#06DAAE"/>
<stop offset="0.2214" stop-color="#0CCDA8"/>
<stop offset="0.6285" stop-color="#1DAB9A"/>
<stop offset="1" stop-color="#2F878A"/>
</radialGradient>
<radialGradient id="paint12_radial" cx="0" cy="0" r="1" gradientUnits="userSpaceOnUse" gradientTransform="translate(20.4386 20.9687) scale(4.36863)">
<stop stop-color="#06DAAE"/>
<stop offset="0.2214" stop-color="#0CCDA8"/>
<stop offset="0.6285" stop-color="#1DAB9A"/>
<stop offset="1" stop-color="#2F878A"/>
</radialGradient>
<radialGradient id="paint13_radial" cx="0" cy="0" r="1" gradientUnits="userSpaceOnUse" gradientTransform="translate(33.828 26.5173) scale(8.69644)">
<stop stop-color="#06DAAE"/>
<stop offset="0.2214" stop-color="#0CCDA8"/>
<stop offset="0.6285" stop-color="#1DAB9A"/>
<stop offset="1" stop-color="#2F878A"/>
</radialGradient>
<radialGradient id="paint14_radial" cx="0" cy="0" r="1" gradientUnits="userSpaceOnUse" gradientTransform="translate(25.4951 32.9617) scale(12.126)">
<stop stop-color="#06DAAE"/>
<stop offset="0.2214" stop-color="#0CCDA8"/>
<stop offset="0.6285" stop-color="#1DAB9A"/>
<stop offset="1" stop-color="#2F878A"/>
</radialGradient>
<radialGradient id="paint15_radial" cx="0" cy="0" r="1" gradientUnits="userSpaceOnUse" gradientTransform="translate(26.2394 24.4062) scale(4.36863)">
<stop stop-color="#06DAAE"/>
<stop offset="0.2214" stop-color="#0CCDA8"/>
<stop offset="0.6285" stop-color="#1DAB9A"/>
<stop offset="1" stop-color="#2F878A"/>
</radialGradient>
<radialGradient id="paint16_radial" cx="0" cy="0" r="1" gradientUnits="userSpaceOnUse" gradientTransform="translate(31.362 26.8582) scale(6.65586)">
<stop stop-color="#06DAAE"/>
<stop offset="0.2214" stop-color="#0CCDA8"/>
<stop offset="0.6285" stop-color="#1DAB9A"/>
<stop offset="1" stop-color="#2F878A"/>
</radialGradient>
<radialGradient id="paint17_radial" cx="0" cy="0" r="1" gradientUnits="userSpaceOnUse" gradientTransform="translate(31.0671 35.6818) scale(13.3016)">
<stop stop-color="#06DAAE"/>
<stop offset="0.2214" stop-color="#0CCDA8"/>
<stop offset="0.6285" stop-color="#1DAB9A"/>
<stop offset="1" stop-color="#2F878A"/>
</radialGradient>
<radialGradient id="paint18_radial" cx="0" cy="0" r="1" gradientUnits="userSpaceOnUse" gradientTransform="translate(22.9252 16.2342) scale(3.77943)">
<stop stop-color="#06DAAE"/>
<stop offset="0.2214" stop-color="#0CCDA8"/>
<stop offset="0.6285" stop-color="#1DAB9A"/>
<stop offset="1" stop-color="#2F878A"/>
</radialGradient>
<radialGradient id="paint19_radial" cx="0" cy="0" r="1" gradientUnits="userSpaceOnUse" gradientTransform="translate(25.046 16.1897) scale(2.1798)">
<stop stop-color="#06DAAE"/>
<stop offset="0.2214" stop-color="#0CCDA8"/>
<stop offset="0.6285" stop-color="#1DAB9A"/>
<stop offset="1" stop-color="#2F878A"/>
</radialGradient>
<radialGradient id="paint20_radial" cx="0" cy="0" r="1" gradientUnits="userSpaceOnUse" gradientTransform="translate(27.6019 17.4132) scale(3.32105)">
<stop stop-color="#06DAAE"/>
<stop offset="0.2214" stop-color="#0CCDA8"/>
<stop offset="0.6285" stop-color="#1DAB9A"/>
<stop offset="1" stop-color="#2F878A"/>
</radialGradient>
<radialGradient id="paint21_radial" cx="0" cy="0" r="1" gradientUnits="userSpaceOnUse" gradientTransform="translate(27.4548 21.9218) scale(6.63706 6.78971)">
<stop stop-color="#06DAAE"/>
<stop offset="0.2214" stop-color="#0CCDA8"/>
<stop offset="0.6285" stop-color="#1DAB9A"/>
<stop offset="1" stop-color="#2F878A"/>
</radialGradient>
<clipPath id="clip0">
<rect width="55" height="55" fill="white"/>
</clipPath>
</defs>
</svg>
