<svg width="140" height="140" viewBox="0 0 140 140" fill="none" xmlns="http://www.w3.org/2000/svg">
<g clip-path="url(#clip0)">
<path d="M38.9666 76.895C49.0119 80.0356 59.4752 81.635 70 81.6387C80.5247 81.635 90.9881 80.0356 101.033 76.895C101.829 76.6474 102.433 75.9939 102.617 75.1807C102.8 74.3675 102.536 73.518 101.924 72.9524C101.311 72.3867 100.443 72.1908 99.6473 72.4384C80.3492 78.4817 59.6648 78.4817 40.3666 72.4384C39.136 72.0556 37.828 72.743 37.4453 73.9737C37.0626 75.2044 37.75 76.5123 38.9806 76.895H38.9666Z" fill="#407BFF"/>
<path d="M39.3073 62.972C49.4626 64.5425 59.724 65.3272 70 65.3193C80.276 65.3272 90.5374 64.5425 100.693 62.972C101.524 62.8524 102.227 62.295 102.534 61.5125C102.84 60.7301 102.701 59.8434 102.172 59.1913C101.642 58.5391 100.803 58.2221 99.974 58.3613C80.1082 61.418 59.8918 61.418 40.026 58.3613C38.7611 58.1795 37.5853 59.0489 37.3885 60.3115C37.1916 61.5742 38.0471 62.7602 39.3073 62.972Z" fill="#407BFF"/>
<path d="M99.3277 88.9C80.8213 97.9418 59.1788 97.9418 40.6723 88.9C39.9139 88.474 38.9814 88.5053 38.2532 88.9812C37.5249 89.4571 37.122 90.2986 37.2077 91.1643C37.2934 92.03 37.8536 92.7762 38.661 93.1C58.437 102.76 81.563 102.76 101.339 93.1C102.146 92.7762 102.707 92.03 102.792 91.1643C102.878 90.2986 102.475 89.4571 101.747 88.9812C101.019 88.5053 100.086 88.474 99.3277 88.9Z" fill="#407BFF"/>
<path d="M130.667 42H118.571C117.585 39.2132 114.956 37.3456 112 37.3333H108.477C99.8111 37.2202 91.6577 33.209 86.2797 26.4133C82.2954 21.5146 76.3168 18.6707 70.0023 18.6707C63.6879 18.6707 57.7093 21.5146 53.725 26.4133C48.3457 33.21 40.1904 37.2212 31.5233 37.3333H28C25.0442 37.3456 22.4146 39.2132 21.4293 42H9.33333C4.17868 42 0 46.1787 0 51.3333V63C0 75.264 10.9807 86.5503 24.3087 88.389C30.8888 106.374 47.1114 119.063 66.1523 121.116C68.7108 121.406 71.2938 121.406 73.8523 121.116C92.8915 119.061 109.112 106.373 115.691 88.389C129.019 86.5503 140 75.264 140 63V51.3333C140 46.1787 135.821 42 130.667 42ZM28 42H31.5233C41.5961 41.8877 51.082 37.242 57.3463 29.3533C60.4435 25.5424 65.0928 23.3298 70.0035 23.3298C74.9142 23.3298 79.5635 25.5424 82.6607 29.3533C88.9226 37.2412 98.406 41.8869 108.477 42H112C113.289 42 114.333 43.0447 114.333 44.3333V46.6666L107.333 46.655H107.287C96.1883 46.3565 85.8126 41.083 79.03 32.2933C76.8164 29.5728 73.4942 27.9953 69.9868 27.9993C66.4795 28.0034 63.1609 29.5886 60.9537 32.3143C54.1739 41.0915 43.8071 46.3554 32.7203 46.6503H32.6667L25.6667 46.6666V44.3333C25.6667 43.0447 26.7113 42 28 42ZM4.66667 63V51.3333C4.66667 48.756 6.756 46.6666 9.33333 46.6666H21V70C21.0074 74.5071 21.5916 78.9948 22.7383 83.3536C13.468 81.1206 4.66667 73.2013 4.66667 63ZM73.3647 116.475C71.1286 116.727 68.8714 116.727 66.6353 116.475C48.9062 114.54 33.9266 102.459 28.28 85.5423V85.519C26.5581 80.5257 25.675 75.2818 25.6667 70V51.3333L32.6667 51.3216C45.1858 51.0776 56.9197 45.1725 64.575 35.2637C65.8969 33.6276 67.8864 32.6752 69.9897 32.6716C72.0931 32.6679 74.0858 33.6135 75.4133 35.245C83.0791 45.1211 94.7811 51.0248 107.28 51.3216H107.333L114.333 51.3333V70C114.327 75.2798 113.446 80.5222 111.727 85.5143V85.5376C106.081 102.459 91.0976 114.542 73.3647 116.475ZM135.333 63C135.333 73.2013 126.532 81.1206 117.262 83.3583C118.409 78.998 118.993 74.5087 119 70V46.6666H130.667C133.244 46.6666 135.333 48.756 135.333 51.3333V63Z" fill="#407BFF"/>
</g>
<defs>
<clipPath id="clip0">
<rect width="140" height="140" fill="white"/>
</clipPath>
</defs>
</svg>
