<svg width="30" height="30" viewBox="0 0 30 30" fill="none" xmlns="http://www.w3.org/2000/svg">
<g clip-path="url(#clip0)">
<path d="M29.2128 23.1436L23.1407 19.0942C22.3702 18.5844 21.3373 18.7521 20.7676 19.4796L18.9988 21.7537C18.7715 22.0535 18.3583 22.1404 18.0295 21.9577L17.693 21.7722C16.5777 21.1643 15.1899 20.4075 12.3938 17.6104C9.59774 14.8133 8.83936 13.4245 8.23142 12.3112L8.04694 11.9747C7.86175 11.6459 7.94705 11.231 8.24689 11.0019L10.5195 9.23364C11.2467 8.6639 11.4146 7.63128 10.9055 6.86048L6.85608 0.788373C6.33426 0.00345041 5.28734 -0.232179 4.47952 0.253433L1.94038 1.77869C1.14257 2.24773 0.557245 3.00734 0.307145 3.89836C-0.607192 7.22986 0.0806548 12.9795 8.55042 21.4503C15.2879 28.1873 20.3037 29.999 23.7512 29.999C24.5446 30.0024 25.3349 29.8992 26.1009 29.6921C26.9921 29.4423 27.7518 28.8569 28.2205 28.0588L29.7473 25.5212C30.2336 24.7132 29.9981 23.6657 29.2128 23.1436ZM28.8859 25.0083L27.3626 27.5474C27.026 28.1234 26.4796 28.5469 25.8378 28.7292C22.7623 29.5736 17.3891 28.8742 9.25777 20.7429C1.12646 12.6116 0.427127 7.23888 1.27151 4.16287C1.45406 3.52031 1.8781 2.97319 2.45482 2.63609L4.99395 1.11282C5.34446 0.901911 5.79885 1.00414 6.02528 1.34476L8.22498 4.64725L10.0712 7.41633C10.2923 7.75068 10.2197 8.1988 9.90426 8.4462L7.6311 10.2144C6.93933 10.7434 6.74178 11.7005 7.16769 12.4601L7.34819 12.7881C7.98712 13.9599 8.78148 15.4176 11.6816 18.3173C14.5816 21.2168 16.0389 22.0112 17.2102 22.6501L17.5387 22.8311C18.2982 23.2569 19.2554 23.0594 19.7843 22.3677L21.5526 20.0945C21.8 19.7792 22.248 19.7067 22.5824 19.9275L28.654 23.9769C28.9948 24.2032 29.0971 24.6578 28.8859 25.0083Z" fill="#407BFF"/>
<path d="M16.9991 5.0025C21.6907 5.00771 25.4926 8.80971 25.4979 13.5013C25.4979 13.7774 25.7217 14.0012 25.9978 14.0012C26.2739 14.0012 26.4977 13.7774 26.4977 13.5013C26.4919 8.25772 22.2427 4.00843 16.9991 4.00269C16.723 4.00269 16.4992 4.22648 16.4992 4.50259C16.4992 4.7787 16.723 5.0025 16.9991 5.0025Z" fill="#407BFF"/>
<path d="M16.9991 8.00201C20.0348 8.00558 22.4947 10.4656 22.4983 13.5012C22.4983 13.7773 22.7222 14.0011 22.9982 14.0011C23.2743 14.0011 23.4981 13.7773 23.4981 13.5012C23.494 9.91358 20.5867 7.0063 16.9991 7.0022C16.723 7.0022 16.4992 7.22599 16.4992 7.5021C16.4992 7.77822 16.723 8.00201 16.9991 8.00201Z" fill="#407BFF"/>
<path d="M16.9991 11.0015C18.3789 11.0032 19.4971 12.1213 19.4988 13.5012C19.4988 13.7773 19.7226 14.0011 19.9987 14.0011C20.2747 14.0011 20.4986 13.7773 20.4986 13.5012C20.4963 11.5694 18.9309 10.0039 16.9991 10.0017C16.723 10.0017 16.4992 10.2255 16.4992 10.5016C16.4992 10.7777 16.723 11.0015 16.9991 11.0015Z" fill="#407BFF"/>
</g>
<defs>
<clipPath id="clip0">
<rect width="30" height="30" fill="white"/>
</clipPath>
</defs>
</svg>
