<svg width="30" height="30" viewBox="0 0 30 30" fill="none" xmlns="http://www.w3.org/2000/svg">
<g clip-path="url(#clip0)">
<path d="M12.3158 24.9235L12.3157 24.9235L12.3089 24.9303C12.1164 25.1214 11.9922 25.2407 11.8464 25.3248C11.8378 25.3297 11.829 25.3346 11.8201 25.3394L12.2556 19.2133L24.8864 7.87187C24.8869 7.87145 24.8874 7.87103 24.8879 7.8706C25.0588 7.71889 25.2481 7.49079 25.2589 7.19628C25.2726 6.8235 25.0084 6.60228 24.7774 6.52054C24.5622 6.44439 24.3224 6.45439 24.1079 6.50287C23.8859 6.55307 23.6506 6.65314 23.4209 6.80438L7.81682 16.5682L1.23223 14.5201L1.23176 14.5199C0.903715 14.4183 0.70162 14.2988 0.593644 14.1978C0.494612 14.1053 0.499141 14.0559 0.500035 14.0461L0.500076 14.0457C0.502281 14.0207 0.525112 13.923 0.699352 13.7703C0.870649 13.6203 1.15201 13.451 1.5724 13.2878C1.57274 13.2876 1.57307 13.2875 1.57341 13.2874L28.1794 3.10111C28.1801 3.10085 28.1808 3.1006 28.1815 3.10034C28.6805 2.91521 29.0339 3.00661 29.2253 3.19076C29.4157 3.37402 29.5936 3.78951 29.4433 4.57918L29.4235 4.67191L24.8967 25.8834C24.7403 26.5672 24.4902 26.8467 24.2763 26.9436C24.0673 27.0383 23.7159 27.0382 23.1571 26.7328L16.2854 21.7004L15.9474 21.4528L15.6445 21.7423L12.3158 24.9235Z" stroke="#407BFF"/>
</g>
<defs>
<clipPath id="clip0">
<rect width="30" height="30" fill="white"/>
</clipPath>
</defs>
</svg>
